<?xml version="1.0" encoding="utf-8"?>
<svg version="1.0" width="926.000000pt" height="1280.000000pt" viewBox="0 0 926.000000 1280.000000" preserveAspectRatio="xMidYMid meet" xmlns="http://www.w3.org/2000/svg">
  <g transform="matrix(2.412925, 0, 0, 2.476245, -154.708804, 6.081299)" style="">
    <path class="st0" d="M256.002,0C170.815,0,65.94,120.242,65.94,283.149C65.94,446.062,162.908,512,256.002,512 c93.09,0,190.058-65.938,190.058-228.851C446.06,120.242,341.186,0,256.002,0z"/>
  </g>
  <g transform="matrix(2.269706, 0, 0, 2.329267, -118.044741, 43.707642)" style="">
    <path class="st0" d="M256.002,0C170.815,0,65.94,120.242,65.94,283.149C65.94,446.062,162.908,512,256.002,512 c93.09,0,190.058-65.938,190.058-228.851C446.06,120.242,341.186,0,256.002,0z" style="fill: rgb(255, 255, 255);"/>
  </g>
</svg>